<svg width="32" height="35" viewBox="0 0 32 35" fill="none" xmlns="http://www.w3.org/2000/svg">
<path fill-rule="evenodd" clip-rule="evenodd" d="M24.2941 1.38105C19.0505 0.20892 13.6127 0.20892 8.36908 1.38105L7.80408 1.50605C6.32871 1.83494 4.97357 2.56685 3.88952 3.62029C2.80548 4.67373 2.03507 6.00737 1.66408 7.47272C0.337232 12.7106 0.337232 18.1966 1.66408 23.4344C2.01792 24.8319 2.73537 26.1108 3.74354 27.1412C4.75171 28.1716 6.01466 28.9168 7.40408 29.3011L8.17908 33.9277C8.20382 34.0746 8.2675 34.2122 8.36347 34.3262C8.45945 34.4401 8.58422 34.5263 8.72479 34.5756C8.86536 34.625 9.0166 34.6357 9.16274 34.6068C9.30889 34.5779 9.4446 34.5103 9.55575 34.4111L14.1074 30.3394C17.5242 30.5456 20.9531 30.2724 24.2941 29.5277L24.8608 29.4027C26.3361 29.0738 27.6913 28.3419 28.7753 27.2885C29.8594 26.235 30.6298 24.9014 31.0008 23.4361C32.3276 18.1982 32.3276 12.7122 31.0008 7.47439C30.6296 6.00882 29.859 4.67504 28.7746 3.62158C27.6903 2.56812 26.3348 1.83633 24.8591 1.50772L24.2941 1.38105ZM9.77575 7.33772C9.46599 7.29236 9.15004 7.35473 8.88075 7.51439H8.85742C8.23242 7.88105 7.66908 8.34272 7.18908 8.88605C6.78908 9.34772 6.57242 9.81439 6.51575 10.2644C6.48242 10.5311 6.50575 10.8011 6.58408 11.0561L6.61408 11.0727C7.06408 12.3944 7.65075 13.6661 8.36742 14.8627C9.29191 16.5433 10.429 18.0977 11.7508 19.4877L11.7908 19.5444L11.8541 19.5911L11.8924 19.6361L11.9391 19.6761C13.334 21.0016 14.8921 22.1441 16.5758 23.0761C18.5008 24.1244 19.6691 24.6194 20.3708 24.8261V24.8361C20.5758 24.8994 20.7624 24.9277 20.9508 24.9277C21.5486 24.8848 22.1146 24.6418 22.5574 24.2377C23.0991 23.7577 23.5574 23.1927 23.9141 22.5644V22.5527C24.2491 21.9194 24.1358 21.3227 23.6524 20.9177C22.6824 20.0684 21.6325 19.3149 20.5174 18.6677C19.7708 18.2627 19.0124 18.5077 18.7058 18.9177L18.0508 19.7444C17.7141 20.1544 17.1041 20.0977 17.1041 20.0977L17.0874 20.1077C12.5358 18.9461 11.3208 14.3377 11.3208 14.3377C11.3208 14.3377 11.2641 13.7111 11.6858 13.3911L12.5058 12.7311C12.8991 12.4111 13.1724 11.6544 12.7508 10.9077C12.105 9.79343 11.3532 8.74411 10.5058 7.77439C10.3204 7.54668 10.0608 7.3915 9.77242 7.33605M17.4658 5.33439C17.2447 5.33439 17.0328 5.42218 16.8765 5.57846C16.7202 5.73474 16.6324 5.94671 16.6324 6.16772C16.6324 6.38873 16.7202 6.60069 16.8765 6.75697C17.0328 6.91325 17.2447 7.00105 17.4658 7.00105C19.5741 7.00105 21.3241 7.68939 22.7091 9.00939C23.4208 9.73105 23.9757 10.5861 24.3391 11.5227C24.7041 12.4611 24.8708 13.4627 24.8274 14.4661C24.8228 14.5755 24.8398 14.6848 24.8775 14.7876C24.9151 14.8905 24.9726 14.9849 25.0467 15.0656C25.1965 15.2284 25.4047 15.3251 25.6258 15.3344C25.8468 15.3437 26.0624 15.2648 26.2253 15.1151C26.3881 14.9653 26.4848 14.7571 26.4941 14.5361C26.5438 13.302 26.339 12.0709 25.8924 10.9194C25.4438 9.76203 24.7606 8.70999 23.8858 7.82939L23.8691 7.81272C22.1508 6.17105 19.9758 5.33439 17.4658 5.33439ZM17.4091 8.07439C17.1881 8.07439 16.9761 8.16218 16.8198 8.31846C16.6635 8.47474 16.5758 8.68671 16.5758 8.90772C16.5758 9.12873 16.6635 9.34069 16.8198 9.49697C16.9761 9.65326 17.1881 9.74105 17.4091 9.74105H17.4374C18.9574 9.84939 20.0641 10.3561 20.8391 11.1877C21.6341 12.0444 22.0458 13.1094 22.0141 14.4261C22.009 14.6471 22.0919 14.861 22.2446 15.0209C22.3973 15.1808 22.6072 15.2735 22.8283 15.2786C23.0493 15.2836 23.2632 15.2007 23.4231 15.048C23.583 14.8953 23.6757 14.6854 23.6808 14.4644C23.7208 12.7361 23.1641 11.2444 22.0608 10.0544V10.0511C20.9324 8.84105 19.3841 8.20105 17.5208 8.07605L17.4924 8.07272L17.4091 8.07439ZM17.3774 10.8661C17.2659 10.8562 17.1535 10.8689 17.047 10.9035C16.9405 10.938 16.8421 10.9937 16.7576 11.0671C16.6731 11.1405 16.6042 11.2303 16.5552 11.3309C16.5061 11.4315 16.4778 11.541 16.472 11.6528C16.4661 11.7646 16.4829 11.8764 16.5213 11.9816C16.5596 12.0868 16.6188 12.1832 16.6952 12.265C16.7716 12.3468 16.8637 12.4124 16.9661 12.4578C17.0684 12.5032 17.1788 12.5276 17.2908 12.5294C17.9874 12.5661 18.4324 12.7761 18.7124 13.0577C18.9941 13.3411 19.2041 13.7961 19.2424 14.5077C19.2445 14.6196 19.2691 14.7298 19.3147 14.832C19.3603 14.9341 19.426 15.026 19.5078 15.1022C19.5897 15.1784 19.6861 15.2374 19.7912 15.2755C19.8964 15.3137 20.0081 15.3303 20.1198 15.3244C20.2315 15.3185 20.3409 15.2901 20.4414 15.241C20.5419 15.1919 20.6315 15.1231 20.7048 15.0386C20.7781 14.9542 20.8337 14.8558 20.8682 14.7495C20.9028 14.6431 20.9155 14.5308 20.9058 14.4194C20.8524 13.4194 20.5391 12.5361 19.8974 11.8861C19.2524 11.2361 18.3741 10.9194 17.3774 10.8661Z" fill="#EBEAE3"/>
</svg>
